HIERARCHY
ROOT Hip
{
   OFFSET 0.00000 0.00000 0.00000
   CHANNELS 6 Xposition Yposition Zposition Zrotation Yrotation Xrotation
   JOINT Head
   {
      OFFSET 0.000000 19.004801 0.000000
      CHANNELS 3 Zrotation Yrotation Xrotation
      End Site
      {
         OFFSET 0.000000 11.323200 0.000000
      }
      JOINT LeftShoulder
      {
         OFFSET 6.283680 0.000000 0.000000
         CHANNELS 3 Zrotation Yrotation Xrotation
         JOINT LeftHand
         {
            OFFSET 0.000000 -9.182400 0.000000
            CHANNELS 3 Zrotation Yrotation Xrotation
            End Site
            {
               OFFSET 0.000000 -10.056800 0.000000
            }
         }
      }
      JOINT RightShoulder
      {
         OFFSET -6.696960 0.000000 0.000000
         CHANNELS 3 Zrotation Yrotation Xrotation
         JOINT RghtHand
         {
            OFFSET 0.000000 -11.002401 0.000000
            CHANNELS 3 Zrotation Yrotation Xrotation
            End Site
            {
               OFFSET 0.000000 -7.536640 0.000000
            }
         }
      }
   }
   JOINT LeftHip
   {
      OFFSET 6.649040 0.000000 0.000000
      CHANNELS 3 Zrotation Yrotation Xrotation
      JOINT LeftKnee
      {
         OFFSET 0.000000 -18.742399 0.000000
         CHANNELS 3 Zrotation Yrotation Xrotation
         JOINT LeftFoot
         {
            OFFSET 0.000000 -14.290401 0.000000
            CHANNELS 3 Zrotation Yrotation Xrotation
            End Site
            {
               OFFSET 0.000000 0.000000 9.312801
            }
         }
      }
   }
   JOINT RightHip
   {
      OFFSET -6.649040 0.000000 0.000000
      CHANNELS 3 Zrotation Yrotation Xrotation
      JOINT RightKnee
      {
         OFFSET 0.000000 -16.962400 0.000000
         CHANNELS 3 Zrotation Yrotation Xrotation
         JOINT RightFoot
         {
            OFFSET 0.000000 -14.547200 0.000000
            CHANNELS 3 Zrotation Yrotation Xrotation
            End Site
            {
               OFFSET 0.000000 0.000000 9.354400
            }
         }
      }
   }
}
MOTION
Frames: 29
Frame Time: 0.016670
7.929606 38.783934 -15.233416 128.062809 83.668205 130.121469 -6.036392 18.385908 -24.653595 22.152721 -16.515196 22.227722 -9.022757 -0.600936 8.726308 -40.094245 -6.170361 40.431858 -21.795513 3.655911 41.031818 -11.717050 -59.763889 -0.776866 25.212699 -54.656021 -4.300758 15.949818 -51.943220 0.578399 -15.538380 -40.452618 6.310664 1.604482 -52.059989 0.746111 18.177823 -45.829500 22.936653
7.930899 38.802170 -15.204414 163.076586 61.698075 165.615203 -3.108628 -6.235147 -25.076140 14.211041 -24.902919 25.566452 -11.591524 -2.246673 6.975611 -47.870682 -8.725619 41.567500 -25.460500 4.083735 36.677371 -3.467661 -69.516545 -11.623444 23.831353 -61.373525 -12.805564 17.365947 -59.072756 0.391261 -27.955293 -48.375491 25.695573 16.910468 -55.655318 -14.048766 19.332285 -53.814757 23.821473
7.922426 38.811643 -15.196502 162.613308 62.683658 164.701652 -3.466751 -6.379568 -24.876596 9.586342 -34.244963 28.077992 -14.494684 -3.505877 4.769469 -52.229849 -13.593324 42.505821 -29.588837 4.770857 32.960215 -3.387109 -69.850132 -11.541707 23.459849 -61.536371 -13.429240 17.478722 -59.206655 0.633718 -29.770517 -49.409677 27.042807 18.708665 -54.760458 -15.121679 18.982296 -53.853432 23.147188
7.932966 38.814849 -15.193596 162.185997 63.895511 163.820257 -3.738837 -5.670292 -24.591398 4.517223 -42.352838 31.253382 -16.673407 -4.628385 2.477501 -56.513808 -18.260874 43.711059 -33.132285 4.903286 29.123759 -3.947670 -69.979803 -10.788523 23.096112 -61.550147 -13.442379 17.433552 -59.100206 0.739864 -31.108995 -50.072520 27.821099 19.420453 -54.121347 -15.080957 18.749404 -53.477591 22.684020
7.926955 38.813898 -15.170746 161.755586 64.790341 163.023570 -3.901092 -4.890804 -24.338177 -0.679793 -48.903280 35.044567 -18.188577 -5.550917 0.187545 -60.650270 -22.634067 45.263739 -36.126841 4.636384 25.445067 -4.296457 -70.082529 -10.289328 22.837593 -61.529506 -13.530163 17.355938 -58.992679 0.799606 -32.463875 -50.753141 28.695107 20.132741 -53.468941 -15.013982 18.513714 -53.090756 22.248059
7.919955 38.813326 -15.137738 161.351608 65.486713 162.281565 -4.120493 -4.105352 -24.087222 -5.864844 -53.681612 39.176217 -19.125319 -6.240677 -1.930089 -64.651866 -26.611850 47.008692 -38.602105 4.099772 22.034334 -4.598203 -70.149069 -9.840536 22.574388 -61.504986 -13.604574 17.299145 -58.885124 0.877319 -33.914782 -51.419652 29.715513 20.847421 -52.801156 -14.873799 18.274723 -52.685518 21.836163
7.909658 38.808269 -15.093916 160.996752 66.045272 161.582140 -4.280411 -3.250262 -23.772444 -10.708527 -56.998127 43.275054 -19.677466 -6.690006 -3.765637 -68.490740 -30.090552 48.934463 -40.545710 3.382305 18.979878 -4.930710 -70.159642 -9.378207 22.296943 -61.491776 -13.594728 17.236150 -58.778135 0.944094 -35.478315 -52.073294 30.903778 21.628240 -52.083987 -14.703102 17.990375 -52.248468 21.399049
7.890119 38.808672 -15.031377 160.670146 66.460193 160.967778 -4.382707 -2.401585 -23.454502 -15.084109 -59.260422 47.163665 -20.044068 -6.921371 -5.306456 -72.082005 -33.119464 50.955947 -42.043151 2.582039 16.341190 -5.112776 -70.148905 -9.064962 22.063333 -61.481470 -13.619116 17.193517 -58.689937 1.024318 -37.103544 -52.785430 32.165133 22.264666 -51.398205 -14.371442 17.763418 -51.774897 21.063805
7.886345 38.805234 -14.978130 160.296904 67.089390 160.236006 -4.455898 -1.317535 -22.981917 -19.015349 -60.746753 50.759388 -20.261650 -6.959733 -6.675834 -75.390972 -35.749456 52.925725 -43.203200 1.774155 14.058685 -5.778486 -70.125743 -8.219363 21.824650 -61.358014 -13.381268 17.082694 -58.446298 1.060546 -38.798715 -53.395178 33.473302 22.789005 -50.648469 -13.820399 17.508147 -51.169745 20.726771
7.828380 38.801560 -14.862665 160.117748 67.134366 159.901927 -4.528142 -0.661843 -22.712565 -22.538591 -61.561171 54.046932 -20.346058 -6.821997 -7.894345 -78.395996 -37.943863 54.858396 -44.021512 0.979102 12.147052 -5.406185 -69.943207 -8.511920 21.632468 -61.460890 -13.470246 17.028186 -58.496602 1.079767 -40.407344 -54.418504 34.845788 23.140496 -49.934116 -13.403687 17.263264 -50.581987 20.422995
7.788743 38.816120 -14.763253 159.830538 67.439860 159.389622 -4.613952 0.232183 -22.314981 -25.744124 -61.990490 57.059096 -20.405962 -6.530540 -8.946925 -81.078683 -39.834647 56.669830 -44.588373 0.218973 10.469877 -5.541154 -69.879583 -8.197386 21.520871 -61.362153 -13.392186 16.989517 -58.330574 1.172597 -42.039077 -55.402260 36.199197 23.190668 -49.165652 -12.747063 17.116866 -49.833832 20.288225
7.735234 38.823687 -14.641140 159.651178 67.637990 159.040832 -4.613924 1.009244 -21.918446 -28.623458 -62.180895 59.771368 -20.591289 -6.108446 -9.881527 -83.448239 -41.399675 58.366555 -45.051477 -0.467786 9.068992 -5.562638 -69.865390 -7.985589 21.548654 -61.233568 -13.329137 16.922369 -58.163514 1.225439 -43.661240 -56.503799 37.583850 23.163011 -48.389022 -12.063939 16.889605 -49.074383 20.061444
7.661174 38.835713 -14.531216 159.390100 67.785850 158.677958 -4.642826 1.769150 -21.480450 -31.231402 -62.105831 62.216917 -20.763031 -5.570231 -10.660673 -85.531139 -42.781631 59.894735 -45.522640 -1.081473 7.898551 -5.615331 -69.594505 -7.903760 21.447284 -61.250240 -13.062209 16.866619 -58.099365 1.257220 -45.278174 -57.596882 38.814964 22.940054 -47.678306 -11.140854 16.646848 -48.316847 19.824093
7.584449 38.845832 -14.398079 159.213786 67.799968 158.480961 -4.519974 2.416423 -21.079106 -33.554121 -61.831175 64.407427 -21.022369 -4.927629 -11.433602 -87.326673 -43.970186 61.252447 -45.905824 -1.640569 6.891860 -5.469474 -69.478364 -7.956786 21.577042 -61.150322 -12.945009 16.816926 -57.976490 1.304003 -46.818437 -58.779044 40.054866 22.608360 -46.970398 -10.255700 16.387953 -47.570382 19.576611
7.514560 38.865590 -14.284531 158.965044 67.882361 158.181075 -4.314108 3.065545 -20.659307 -35.627633 -61.405450 66.411890 -21.285841 -4.184083 -12.040018 -88.844901 -45.015038 62.536092 -46.110720 -2.175433 6.063412 -5.514015 -69.238570 -7.881393 21.576762 -61.117789 -12.685350 16.789974 -57.885143 1.363130 -48.402279 -59.840599 41.301683 22.252442 -46.271642 -9.344448 16.176878 -46.856904 19.404936
7.439809 38.878884 -14.153194 158.841991 67.836892 158.022546 -4.078527 3.634861 -20.286580 -37.505306 -60.889040 68.170527 -21.708054 -3.372828 -12.543700 -90.153477 -45.945501 63.709033 -46.223261 -2.675752 5.506985 -5.278282 -69.090847 -8.038735 21.640718 -61.083017 -12.622149 16.748560 -57.828644 1.390858 -49.963643 -60.866234 42.624045 21.909729 -45.577221 -8.507938 15.910232 -46.180046 19.166877
7.359047 38.889353 -14.015451 158.771217 67.791560 157.919574 -3.865128 4.159144 -19.892248 -39.185147 -60.389124 69.701718 -22.228825 -2.494238 -12.995475 -91.321316 -46.737762 64.731212 -46.399101 -3.140183 5.136933 -4.950159 -68.851824 -8.301476 21.625243 -61.148197 -12.533435 16.711733 -57.858635 1.398356 -51.527838 -61.836079 43.988577 21.616224 -44.910136 -7.713958 15.645110 -45.562348 18.939269
7.282813 38.897735 -13.893165 158.711316 67.747069 157.769816 -3.685927 4.602454 -19.446327 -40.701248 -59.958399 71.018517 -22.821395 -1.553188 -13.361070 -92.335490 -47.482881 65.604629 -46.650585 -3.573672 4.871507 -4.759429 -68.692333 -8.431033 21.573511 -61.204868 -12.464291 16.652548 -57.879269 1.381346 -53.148434 -62.611449 45.412268 21.427150 -44.304230 -6.997305 15.375055 -45.045565 18.702132
7.205599 38.907167 -13.771806 158.672548 67.690180 157.598801 -3.575029 5.011917 -18.933382 -42.058447 -59.559687 72.158012 -23.521922 -0.554383 -13.760274 -93.185965 -48.197185 66.390907 -46.953801 -3.987686 4.685393 -4.533794 -68.552245 -8.581403 21.513540 -61.262391 -12.441039 16.611718 -57.905162 1.382197 -54.796248 -63.268705 46.883115 21.316807 -43.737055 -6.322943 15.108909 -44.589155 18.476464
7.120384 38.908443 -13.647580 158.665773 67.552265 157.489614 -3.488680 5.293899 -18.429992 -43.255031 -59.236318 73.145623 -24.292297 0.510070 -14.215348 -93.925845 -48.887076 67.098740 -47.386821 -4.382533 4.616066 -4.179481 -68.430996 -8.881944 21.448949 -61.356532 -12.498860 16.583218 -57.980451 1.387217 -56.472496 -63.787622 48.424532 21.430236 -43.215051 -5.790141 14.809740 -44.217784 18.200564
7.041244 38.905844 -13.526829 158.689801 67.440817 157.357395 -3.467223 5.581797 -17.908520 -44.291919 -58.918667 74.037044 -25.083789 1.650001 -14.709220 -94.549373 -49.465108 67.749555 -47.812444 -4.773488 4.620008 -3.883060 -68.342354 -9.108511 21.361072 -61.469203 -12.542846 16.505518 -58.070104 1.330198 -58.143536 -64.179388 50.018076 21.656435 -42.694420 -5.338684 14.503560 -43.862594 17.925014
6.958002 38.901071 -13.406726 158.690703 67.297512 157.219862 -3.453393 5.878842 -17.366012 -45.234724 -58.625228 74.799772 -25.887457 2.869911 -15.226447 -95.032301 -50.061100 68.355789 -48.310813 -5.152988 4.652231 -3.578872 -68.219533 -9.364945 21.254246 -61.581013 -12.593614 16.448919 -58.157961 1.298980 -59.845817 -64.460662 51.677406 22.056031 -42.198374 -5.035026 14.220608 -43.552664 17.686184
6.874873 38.898870 -13.283232 158.681318 67.171851 157.057618 -3.433356 6.165419 -16.841851 -46.074035 -58.296068 75.475271 -26.667075 4.187352 -15.811879 -95.481960 -50.622128 68.928336 -49.060426 -5.512285 4.828344 -3.317781 -68.138855 -9.576321 21.178511 -61.681485 -12.627998 16.408833 -58.237854 1.289958 -61.548447 -64.719362 53.352954 22.503453 -41.705692 -4.763332 13.901128 -43.251422 17.403110
6.799559 38.898844 -13.143710 158.732135 67.073188 156.952570 -3.346652 6.467492 -16.362265 -46.837083 -57.981483 76.069490 -27.435294 5.612118 -16.420531 -95.886861 -51.148753 69.445306 -50.032577 -5.846686 5.068707 -3.041380 -68.148226 -9.719562 21.219349 -61.698205 -12.706248 16.348679 -58.255612 1.271244 -63.215286 -64.942566 55.088167 22.964469 -41.200285 -4.544629 13.627022 -42.938896 17.199798
6.712551 38.891241 -12.999439 158.752038 66.955668 156.843451 -3.277768 6.771679 -15.849012 -47.565943 -57.667506 76.563941 -28.064066 7.163493 -17.009237 -96.289541 -51.728697 69.904766 -51.464130 -6.118980 5.382660 -2.743884 -68.164188 -9.930609 21.274561 -61.757860 -12.770861 16.259257 -58.320704 1.206761 -64.887869 -65.125854 56.786975 23.494073 -40.702224 -4.282151 13.306786 -42.637483 16.933834
6.618352 38.886406 -12.848532 158.797814 66.825369 156.794424 -3.251237 7.155211 -15.432657 -48.170302 -57.438367 77.062019 -28.879010 8.792357 -17.668436 -96.633175 -52.243502 70.337712 -53.421816 -6.300413 5.616250 -2.348539 -68.122449 -10.246093 21.336736 -61.830889 -12.854075 16.201914 -58.405344 1.178659 -66.533549 -65.308151 58.436947 23.994207 -40.222861 -3.944830 12.992320 -42.346541 16.684595
6.512310 38.882388 -12.690486 158.856772 66.701940 156.811718 -3.209568 7.586306 -15.165323 -48.675456 -57.220094 77.563054 -29.770626 10.522925 -18.335392 -96.865634 -52.754797 70.708987 -56.288934 -6.308180 5.527437 -1.825715 -68.010270 -10.734729 21.401144 -62.006062 -12.926314 16.128595 -58.596227 1.105079 -68.124621 -65.514894 60.023996 24.528898 -39.753275 -3.554609 12.638551 -42.065062 16.384174
6.404158 38.888482 -12.520888 158.975590 66.556048 156.909143 -3.185045 8.094371 -14.948579 -49.124110 -57.091666 78.046960 -30.752011 12.365903 -18.951195 -97.152010 -53.262228 71.093643 -59.997509 -6.146760 5.543715 -1.213902 -67.998194 -11.250838 21.604279 -62.094855 -13.113897 16.100250 -58.745986 1.094872 -69.655109 -65.745926 61.563097 24.941930 -39.304918 -3.100610 12.336465 -41.789256 16.173516
6.289278 38.900194 -12.341165 159.107836 66.424901 157.065609 -3.232473 8.687341 -14.724785 -49.452400 -57.102881 78.563131 -31.937401 14.292584 -19.649841 -97.298995 -53.783706 71.416629 -64.438593 -5.819610 5.222577 -0.491543 -68.056640 -11.830700 21.947052 -62.130836 -13.399738 16.071042 -58.887569 1.084863 -71.139446 -66.019680 63.022463 25.259042 -38.877905 -2.529149 12.036141 -41.524477 15.973895
